<?xml version="1.0" encoding="us-ascii" standalone="no"?><svg xmlns="http://www.w3.org/2000/svg" xmlns:xlink="http://www.w3.org/1999/xlink" contentStyleType="text/css" height="455px" preserveAspectRatio="none" style="width:792px;height:455px;background:#FFFFFF;" version="1.1" viewBox="0 0 792 455" width="792px" zoomAndPan="magnify"><defs/><g><!--class Shape--><g id="elem_Shape"><rect codeLine="3" fill="#F1F1F1" height="83.2188" id="Shape" rx="2.5" ry="2.5" style="stroke:#181818;stroke-width:0.5;" width="169" x="266.5" y="151"/><ellipse cx="326.25" cy="167" fill="#A9DCDF" rx="11" ry="11" style="stroke:#181818;stroke-width:1.0;"/><path d="M328.4375,168.7656 L324.2969,168.7656 L323.875,169.7969 L324.2969,169.7969 Q324.9063,169.7969 325.1719,170.0313 Q325.4375,170.2656 325.4375,170.6563 Q325.4375,171.0313 325.1719,171.2656 Q324.9063,171.5 324.2969,171.5 L322,171.5 Q321.3906,171.5 321.1406,171.2656 Q320.875,171.0313 320.875,170.6406 Q320.875,170.2656 321.1563,170.0313 Q321.4219,169.7813 322.0469,169.7969 L324.7188,163.1406 L323.6094,163.1406 Q323,163.1406 322.7344,162.9063 Q322.4688,162.6719 322.4688,162.2813 Q322.4688,161.9063 322.7344,161.6719 Q323,161.4375 323.6094,161.4375 L327.2813,161.4375 L330.6719,169.7969 Q331.2656,169.7969 331.4531,169.9375 Q331.8438,170.2031 331.8438,170.6563 Q331.8438,171.0313 331.5781,171.2656 Q331.3281,171.5 330.7188,171.5 L328.4219,171.5 Q327.8125,171.5 327.5469,171.2656 Q327.2813,171.0313 327.2813,170.6406 Q327.2813,170.2656 327.5469,170.0313 Q327.8125,169.7969 328.4219,169.7969 L328.8438,169.7969 L328.4375,168.7656 Z M327.7188,167.0625 L326.3594,163.6875 L324.9844,167.0625 L327.7188,167.0625 Z " fill="#000000"/><text fill="#000000" font-family="sans-serif" font-size="14" font-style="italic" lengthAdjust="spacing" textLength="41" x="346.75" y="172.7285">Shape</text><line style="stroke:#181818;stroke-width:0.5;" x1="267.5" x2="434.5" y1="183" y2="183"/><line style="stroke:#181818;stroke-width:0.5;" x1="267.5" x2="434.5" y1="191" y2="191"/><text fill="#000000" font-family="sans-serif" font-size="14" lengthAdjust="spacing" textLength="157" x="272.5" y="209.5332">+surface_area() : double</text><text fill="#000000" font-family="sans-serif" font-size="14" lengthAdjust="spacing" textLength="118" x="272.5" y="227.1426">+volume() : double</text></g><!--class Sphere--><g id="elem_Sphere"><rect codeLine="8" fill="#F1F1F1" height="136.0469" id="Sphere" rx="2.5" ry="2.5" style="stroke:#181818;stroke-width:0.5;" width="170" x="7" y="304"/><ellipse cx="64.75" cy="320" fill="#ADD1B2" rx="11" ry="11" style="stroke:#181818;stroke-width:1.0;"/><path d="M67.5156,315.875 Q67.6719,315.6563 67.8594,315.5469 Q68.0469,315.4375 68.2656,315.4375 Q68.6406,315.4375 68.875,315.7031 Q69.1094,315.9531 69.1094,316.5625 L69.1094,318.0156 Q69.1094,318.625 68.875,318.8906 Q68.6406,319.1563 68.2656,319.1563 Q67.9219,319.1563 67.7188,318.9531 Q67.5156,318.7656 67.4063,318.25 Q67.3594,317.8906 67.1719,317.7031 Q66.8438,317.3281 66.2344,317.1094 Q65.625,316.8906 65,316.8906 Q64.2344,316.8906 63.5938,317.2188 Q62.9688,317.5469 62.4688,318.2969 Q61.9844,319.0469 61.9844,320.0781 L61.9844,321.1719 Q61.9844,322.4063 62.875,323.2344 Q63.7656,324.0469 65.3594,324.0469 Q66.2969,324.0469 66.9531,323.7969 Q67.3438,323.6406 67.7656,323.2031 Q68.0313,322.9375 68.1719,322.8594 Q68.3281,322.7813 68.5313,322.7813 Q68.8594,322.7813 69.1094,323.0469 Q69.375,323.2969 69.375,323.6406 Q69.375,323.9844 69.0313,324.3906 Q68.5313,324.9688 67.7344,325.2969 Q66.6563,325.75 65.3594,325.75 Q63.8438,325.75 62.6406,325.125 Q61.6563,324.625 60.9688,323.5625 Q60.2813,322.4844 60.2813,321.2031 L60.2813,320.0469 Q60.2813,318.7188 60.8906,317.5781 Q61.5156,316.4219 62.6094,315.8125 Q63.7031,315.1875 64.9375,315.1875 Q65.6719,315.1875 66.3125,315.3594 Q66.9688,315.5156 67.5156,315.875 Z " fill="#000000"/><text fill="#000000" font-family="sans-serif" font-size="14" lengthAdjust="spacing" textLength="46" x="85.25" y="325.7285">Sphere</text><line style="stroke:#181818;stroke-width:0.5;" x1="8" x2="176" y1="336" y2="336"/><text fill="#000000" font-family="sans-serif" font-size="14" lengthAdjust="spacing" textLength="99" x="13" y="354.5332">-radius : double</text><line style="stroke:#181818;stroke-width:0.5;" x1="8" x2="176" y1="361.6094" y2="361.6094"/><text fill="#000000" font-family="sans-serif" font-size="14" lengthAdjust="spacing" textLength="158" x="13" y="380.1426">+Sphere(radius : double)</text><text fill="#000000" font-family="sans-serif" font-size="14" lengthAdjust="spacing" textLength="157" x="13" y="397.752">+surface_area() : double</text><text fill="#000000" font-family="sans-serif" font-size="14" lengthAdjust="spacing" textLength="118" x="13" y="415.3613">+volume() : double</text><text fill="#000000" font-family="sans-serif" font-size="14" lengthAdjust="spacing" textLength="116" x="13" y="432.9707">+toString() : String</text></g><!--class Cylinder--><g id="elem_Cylinder"><rect codeLine="16" fill="#F1F1F1" height="153.6563" id="Cylinder" rx="2.5" ry="2.5" style="stroke:#181818;stroke-width:0.5;" width="278" x="212" y="295"/><ellipse cx="320.75" cy="311" fill="#ADD1B2" rx="11" ry="11" style="stroke:#181818;stroke-width:1.0;"/><path d="M323.5156,306.875 Q323.6719,306.6563 323.8594,306.5469 Q324.0469,306.4375 324.2656,306.4375 Q324.6406,306.4375 324.875,306.7031 Q325.1094,306.9531 325.1094,307.5625 L325.1094,309.0156 Q325.1094,309.625 324.875,309.8906 Q324.6406,310.1563 324.2656,310.1563 Q323.9219,310.1563 323.7188,309.9531 Q323.5156,309.7656 323.4063,309.25 Q323.3594,308.8906 323.1719,308.7031 Q322.8438,308.3281 322.2344,308.1094 Q321.625,307.8906 321,307.8906 Q320.2344,307.8906 319.5938,308.2188 Q318.9688,308.5469 318.4688,309.2969 Q317.9844,310.0469 317.9844,311.0781 L317.9844,312.1719 Q317.9844,313.4063 318.875,314.2344 Q319.7656,315.0469 321.3594,315.0469 Q322.2969,315.0469 322.9531,314.7969 Q323.3438,314.6406 323.7656,314.2031 Q324.0313,313.9375 324.1719,313.8594 Q324.3281,313.7813 324.5313,313.7813 Q324.8594,313.7813 325.1094,314.0469 Q325.375,314.2969 325.375,314.6406 Q325.375,314.9844 325.0313,315.3906 Q324.5313,315.9688 323.7344,316.2969 Q322.6563,316.75 321.3594,316.75 Q319.8438,316.75 318.6406,316.125 Q317.6563,315.625 316.9688,314.5625 Q316.2813,313.4844 316.2813,312.2031 L316.2813,311.0469 Q316.2813,309.7188 316.8906,308.5781 Q317.5156,307.4219 318.6094,306.8125 Q319.7031,306.1875 320.9375,306.1875 Q321.6719,306.1875 322.3125,306.3594 Q322.9688,306.5156 323.5156,306.875 Z " fill="#000000"/><text fill="#000000" font-family="sans-serif" font-size="14" lengthAdjust="spacing" textLength="52" x="341.25" y="316.7285">Cylinder</text><line style="stroke:#181818;stroke-width:0.5;" x1="213" x2="489" y1="327" y2="327"/><text fill="#000000" font-family="sans-serif" font-size="14" lengthAdjust="spacing" textLength="99" x="218" y="345.5332">-radius : double</text><text fill="#000000" font-family="sans-serif" font-size="14" lengthAdjust="spacing" textLength="99" x="218" y="363.1426">-height : double</text><line style="stroke:#181818;stroke-width:0.5;" x1="213" x2="489" y1="370.2188" y2="370.2188"/><text fill="#000000" font-family="sans-serif" font-size="14" lengthAdjust="spacing" textLength="266" x="218" y="388.752">+Cylinder(radius : double, height : double)</text><text fill="#000000" font-family="sans-serif" font-size="14" lengthAdjust="spacing" textLength="157" x="218" y="406.3613">+surface_area() : double</text><text fill="#000000" font-family="sans-serif" font-size="14" lengthAdjust="spacing" textLength="118" x="218" y="423.9707">+volume() : double</text><text fill="#000000" font-family="sans-serif" font-size="14" lengthAdjust="spacing" textLength="116" x="218" y="441.5801">+toString() : String</text></g><!--class Cone--><g id="elem_Cone"><rect codeLine="25" fill="#F1F1F1" height="153.6563" id="Cone" rx="2.5" ry="2.5" style="stroke:#181818;stroke-width:0.5;" width="260" x="525" y="295"/><ellipse cx="633.75" cy="311" fill="#ADD1B2" rx="11" ry="11" style="stroke:#181818;stroke-width:1.0;"/><path d="M636.5156,306.875 Q636.6719,306.6563 636.8594,306.5469 Q637.0469,306.4375 637.2656,306.4375 Q637.6406,306.4375 637.875,306.7031 Q638.1094,306.9531 638.1094,307.5625 L638.1094,309.0156 Q638.1094,309.625 637.875,309.8906 Q637.6406,310.1563 637.2656,310.1563 Q636.9219,310.1563 636.7188,309.9531 Q636.5156,309.7656 636.4063,309.25 Q636.3594,308.8906 636.1719,308.7031 Q635.8438,308.3281 635.2344,308.1094 Q634.625,307.8906 634,307.8906 Q633.2344,307.8906 632.5938,308.2188 Q631.9688,308.5469 631.4688,309.2969 Q630.9844,310.0469 630.9844,311.0781 L630.9844,312.1719 Q630.9844,313.4063 631.875,314.2344 Q632.7656,315.0469 634.3594,315.0469 Q635.2969,315.0469 635.9531,314.7969 Q636.3438,314.6406 636.7656,314.2031 Q637.0313,313.9375 637.1719,313.8594 Q637.3281,313.7813 637.5313,313.7813 Q637.8594,313.7813 638.1094,314.0469 Q638.375,314.2969 638.375,314.6406 Q638.375,314.9844 638.0313,315.3906 Q637.5313,315.9688 636.7344,316.2969 Q635.6563,316.75 634.3594,316.75 Q632.8438,316.75 631.6406,316.125 Q630.6563,315.625 629.9688,314.5625 Q629.2813,313.4844 629.2813,312.2031 L629.2813,311.0469 Q629.2813,309.7188 629.8906,308.5781 Q630.5156,307.4219 631.6094,306.8125 Q632.7031,306.1875 633.9375,306.1875 Q634.6719,306.1875 635.3125,306.3594 Q635.9688,306.5156 636.5156,306.875 Z " fill="#000000"/><text fill="#000000" font-family="sans-serif" font-size="14" lengthAdjust="spacing" textLength="34" x="654.25" y="316.7285">Cone</text><line style="stroke:#181818;stroke-width:0.5;" x1="526" x2="784" y1="327" y2="327"/><text fill="#000000" font-family="sans-serif" font-size="14" lengthAdjust="spacing" textLength="99" x="531" y="345.5332">-radius : double</text><text fill="#000000" font-family="sans-serif" font-size="14" lengthAdjust="spacing" textLength="99" x="531" y="363.1426">-height : double</text><line style="stroke:#181818;stroke-width:0.5;" x1="526" x2="784" y1="370.2188" y2="370.2188"/><text fill="#000000" font-family="sans-serif" font-size="14" lengthAdjust="spacing" textLength="248" x="531" y="388.752">+Cone(radius : double, height : double)</text><text fill="#000000" font-family="sans-serif" font-size="14" lengthAdjust="spacing" textLength="157" x="531" y="406.3613">+surface_area() : double</text><text fill="#000000" font-family="sans-serif" font-size="14" lengthAdjust="spacing" textLength="118" x="531" y="423.9707">+volume() : double</text><text fill="#000000" font-family="sans-serif" font-size="14" lengthAdjust="spacing" textLength="116" x="531" y="441.5801">+toString() : String</text></g><!--class ShapeArray--><g id="elem_ShapeArray"><rect codeLine="34" fill="#F1F1F1" height="65.6094" id="ShapeArray" rx="2.5" ry="2.5" style="stroke:#181818;stroke-width:0.5;" width="183" x="259.5" y="7"/><ellipse cx="309.25" cy="23" fill="#ADD1B2" rx="11" ry="11" style="stroke:#181818;stroke-width:1.0;"/><path d="M312.0156,18.875 Q312.1719,18.6563 312.3594,18.5469 Q312.5469,18.4375 312.7656,18.4375 Q313.1406,18.4375 313.375,18.7031 Q313.6094,18.9531 313.6094,19.5625 L313.6094,21.0156 Q313.6094,21.625 313.375,21.8906 Q313.1406,22.1563 312.7656,22.1563 Q312.4219,22.1563 312.2188,21.9531 Q312.0156,21.7656 311.9063,21.25 Q311.8594,20.8906 311.6719,20.7031 Q311.3438,20.3281 310.7344,20.1094 Q310.125,19.8906 309.5,19.8906 Q308.7344,19.8906 308.0938,20.2188 Q307.4688,20.5469 306.9688,21.2969 Q306.4844,22.0469 306.4844,23.0781 L306.4844,24.1719 Q306.4844,25.4063 307.375,26.2344 Q308.2656,27.0469 309.8594,27.0469 Q310.7969,27.0469 311.4531,26.7969 Q311.8438,26.6406 312.2656,26.2031 Q312.5313,25.9375 312.6719,25.8594 Q312.8281,25.7813 313.0313,25.7813 Q313.3594,25.7813 313.6094,26.0469 Q313.875,26.2969 313.875,26.6406 Q313.875,26.9844 313.5313,27.3906 Q313.0313,27.9688 312.2344,28.2969 Q311.1563,28.75 309.8594,28.75 Q308.3438,28.75 307.1406,28.125 Q306.1563,27.625 305.4688,26.5625 Q304.7813,25.4844 304.7813,24.2031 L304.7813,23.0469 Q304.7813,21.7188 305.3906,20.5781 Q306.0156,19.4219 307.1094,18.8125 Q308.2031,18.1875 309.4375,18.1875 Q310.1719,18.1875 310.8125,18.3594 Q311.4688,18.5156 312.0156,18.875 Z " fill="#000000"/><text fill="#000000" font-family="sans-serif" font-size="14" lengthAdjust="spacing" textLength="75" x="329.75" y="28.7285">ShapeArray</text><line style="stroke:#181818;stroke-width:0.5;" x1="260.5" x2="441.5" y1="39" y2="39"/><line style="stroke:#181818;stroke-width:0.5;" x1="260.5" x2="441.5" y1="47" y2="47"/><text fill="#000000" font-family="sans-serif" font-size="14" lengthAdjust="spacing" textLength="171" x="265.5" y="65.5332">+main(args : String[]) : void</text></g><!--reverse link Shape to Sphere--><g id="link_Shape_Sphere"><path codeLine="38" d="M271.0226,243.7072 C242.4626,261.9172 223.86,274.26 194,295 C188.47,298.84 182.81,302.85 177.13,306.92 " fill="none" id="Shape-backto-Sphere" style="stroke:#181818;stroke-width:1.0;"/><polygon fill="none" points="286.2,234.03,267.7969,238.648,274.2484,248.7663,286.2,234.03" style="stroke:#181818;stroke-width:1.0;"/></g><!--reverse link Shape to Cylinder--><g id="link_Shape_Cylinder"><path codeLine="39" d="M351,252.22 C351,270.24 351,274.03 351,294.87 " fill="none" id="Shape-backto-Cylinder" style="stroke:#181818;stroke-width:1.0;"/><polygon fill="none" points="351,234.22,345,252.22,357,252.22,351,234.22" style="stroke:#181818;stroke-width:1.0;"/></g><!--reverse link Shape to Cone--><g id="link_Shape_Cone"><path codeLine="40" d="M436.2833,243.2978 C467.2233,261.3678 489.13,274.15 524.92,295.05 " fill="none" id="Shape-backto-Cone" style="stroke:#181818;stroke-width:1.0;"/><polygon fill="none" points="420.74,234.22,433.2573,248.4789,439.3092,238.1167,420.74,234.22" style="stroke:#181818;stroke-width:1.0;"/></g><!--link ShapeArray to Shape--><g id="link_ShapeArray_Shape"><path codeLine="41" d="M351,73.29 C351,96 351,120.57 351,144.93 " fill="none" id="ShapeArray-to-Shape" style="stroke:#181818;stroke-width:1.0;stroke-dasharray:7.0,7.0;"/><polygon fill="#181818" points="351,150.93,355,141.93,351,145.93,347,141.93,351,150.93" style="stroke:#181818;stroke-width:1.0;"/><text fill="#000000" font-family="sans-serif" font-size="13" lengthAdjust="spacing" textLength="28" x="352" y="117.4951">uses</text></g><!--SRC=[nLB1QeD04BtlLypHq1Xw3YKGSihPOobbrAakrLsPsGqaQV-zwff4XHvQ2BajRzvxysPvygbDWumrP1MAR9rZdNf7-yoQH9y8dfN2L1nZvW85aX8RWhC2U0Bn_84PlICJHWjOGsvzMb4_EzZArpH6lvKQB9gIE7Z4m9XhBrDj84IpqU8VEplKsQGzonGz7fwtBBjZfKrE_6kQ64hIHUccdXVPFEDophvFQ6lehu5RoMF2zeNPCkDnQ4sDsaJ8XLp9hs-Ty61rtib2mrw-udWemXYvVFm4QszJepMhrMQewHgyaFm0]--></g></svg>